<svg id="svg" version="1.1" xmlns="http://www.w3.org/2000/svg" xmlns:xlink="http://www.w3.org/1999/xlink" width="400" height="535.7750163505559" viewBox="0, 0, 400,535.7750163505559"><g id="svgg"><path id="path0" d="M158.927 3.138 C 148.033 4.317,139.416 12.922,136.395 25.638 C 135.824 28.044,135.492 101.519,136.032 106.206 C 137.488 118.852,145.533 128.642,156.601 131.236 C 158.564 131.696,160.715 131.720,200.392 131.720 L 242.119 131.720 244.621 131.028 C 254.722 128.234,262.093 119.493,264.086 107.945 C 264.690 104.445,264.690 30.283,264.086 26.784 C 262.092 15.234,254.711 6.482,244.621 3.704 L 242.119 3.015 201.439 2.977 C 179.065 2.957,159.935 3.029,158.927 3.138 M294.120 3.148 C 282.152 4.406,272.617 15.347,271.308 29.325 C 270.924 33.425,270.924 101.308,271.309 105.408 C 272.660 119.833,282.167 130.382,294.915 131.601 C 300.109 132.097,376.942 131.801,379.078 131.276 C 389.370 128.747,396.697 120.675,399.276 109.026 L 399.869 106.344 399.869 67.364 L 399.869 28.385 399.264 25.644 C 396.469 12.998,387.594 4.217,376.519 3.139 C 373.492 2.845,296.926 2.852,294.120 3.148 M22.895 137.896 C 11.950 139.048,2.926 148.237,0.499 160.703 C -0.202 164.301,-0.283 239.371,0.410 243.071 C 2.834 256.017,11.812 265.128,23.305 266.308 C 26.994 266.686,101.922 266.679,105.373 266.300 C 117.743 264.941,127.167 254.227,128.458 240.056 C 128.866 235.585,128.659 163.452,128.233 161.384 C 125.501 148.119,116.770 139.144,105.373 137.887 C 102.311 137.549,26.112 137.557,22.895 137.896 M158.927 137.867 C 147.925 139.058,139.092 147.975,136.382 160.628 C 135.645 164.068,135.645 240.118,136.382 243.558 C 139.147 256.468,147.974 265.194,159.426 266.337 C 161.114 266.506,176.513 266.572,202.093 266.522 L 242.119 266.442 244.621 265.753 C 254.710 262.976,262.092 254.223,264.086 242.673 C 264.690 239.174,264.690 165.012,264.086 161.512 C 262.092 149.963,254.711 141.210,244.621 138.432 L 242.119 137.743 201.439 137.706 C 179.065 137.686,159.935 137.758,158.927 137.867 M294.572 270.768 C 284.064 271.789,275.215 280.001,272.226 291.504 C 271.040 296.069,270.986 298.264,271.089 337.475 L 271.186 374.232 271.771 376.808 C 274.373 388.263,281.450 396.088,291.728 398.873 C 293.760 399.424,371.678 399.747,376.555 399.225 C 389.131 397.879,398.571 387.021,399.762 372.531 C 400.253 366.557,399.927 296.480,399.396 293.878 C 396.729 280.808,387.767 271.862,376.244 270.769 C 373.025 270.464,297.710 270.462,294.572 270.768 M22.895 272.624 C 11.950 273.776,2.926 282.965,0.499 295.431 C -0.202 299.030,-0.283 374.100,0.410 377.800 C 2.834 390.745,11.812 399.857,23.305 401.036 C 26.971 401.412,101.912 401.408,105.373 401.032 C 116.843 399.784,125.975 390.246,128.258 377.129 C 128.724 374.453,128.724 299.190,128.258 296.514 C 125.952 283.270,116.821 273.802,105.204 272.612 C 101.935 272.277,26.087 272.288,22.895 272.624 M158.797 272.610 C 147.933 273.793,139.075 282.782,136.382 295.356 C 135.645 298.796,135.645 374.847,136.382 378.286 C 138.845 389.787,146.044 397.939,156.050 400.560 L 158.404 401.177 200.262 401.177 L 242.119 401.177 244.621 400.485 C 254.722 397.692,262.093 388.951,264.086 377.402 C 264.690 373.902,264.690 299.740,264.086 296.241 C 262.092 284.691,254.711 275.939,244.621 273.161 L 242.119 272.472 201.439 272.434 C 179.065 272.413,159.876 272.492,158.797 272.610 M22.895 407.353 C 11.964 408.504,2.923 417.710,0.499 430.160 C -0.276 434.136,-0.276 508.964,0.499 512.940 C 2.613 523.801,9.558 532.049,19.097 535.031 L 21.060 535.644 64.356 535.644 L 107.652 535.644 110.268 534.717 C 119.674 531.384,126.332 522.924,128.258 511.858 C 128.724 509.181,128.724 433.919,128.258 431.242 C 125.954 418.005,116.815 408.530,105.204 407.341 C 101.935 407.006,26.087 407.017,22.895 407.353 M158.797 407.338 C 147.933 408.522,139.075 417.511,136.382 430.085 C 135.645 433.525,135.645 509.575,136.382 513.015 C 138.829 524.441,146.166 532.787,155.903 535.223 C 158.104 535.773,158.244 535.775,200.147 535.775 L 242.183 535.775 244.653 535.148 C 254.524 532.644,262.092 523.680,264.086 512.131 C 264.690 508.631,264.690 434.469,264.086 430.970 C 262.092 419.420,254.711 410.667,244.621 407.889 L 242.119 407.201 201.439 407.162 C 179.065 407.142,159.876 407.221,158.797 407.338 " stroke="none" fill="#74cc34" fill-rule="evenodd"></path><path id="path1" d="M54.284 0.409 C 12.146 6.124,-11.985 52.250,6.938 90.909 C 29.345 136.689,94.281 137.282,117.403 91.919 C 140.435 46.732,103.847 -6.314,54.284 0.409 " stroke="none" fill="#d40404" fill-rule="evenodd"></path><path id="path2" d="" stroke="none" fill="#a4d01c" fill-rule="evenodd"></path><path id="path3" d="" stroke="none" fill="#a4d01c" fill-rule="evenodd"></path><path id="path4" d="" stroke="none" fill="#a4d01c" fill-rule="evenodd"></path></g></svg>